HIERARCHY
ROOT Hips
{
	OFFSET 0.00000 0.00000 0.00000
	CHANNELS 6 Xposition Yposition Zposition Zrotation Yrotation Xrotation 
	JOINT LHipJoint
	{
		OFFSET 0 0 0
		CHANNELS 3 Zrotation Yrotation Xrotation
		JOINT LeftHip
		{
			OFFSET 1.28858 -1.83292 1.03970
			CHANNELS 3 Zrotation Yrotation Xrotation
			JOINT LeftKnee
			{
				OFFSET 2.47846 -6.80952 0.00000
				CHANNELS 3 Zrotation Yrotation Xrotation
				JOINT LeftAnkle
				{
					OFFSET 2.75274 -7.56311 0.00000
					CHANNELS 3 Zrotation Yrotation Xrotation
					JOINT LeftToe
					{
						OFFSET 0.12848 -0.35301 1.68223
						CHANNELS 3 Zrotation Yrotation Xrotation
						End Site
						{
							OFFSET 0.00000 -0.00000 0.87311
						}
					}
				}
			}
		}
	}
	JOINT RHipJoint
	{
		OFFSET 0 0 0
		CHANNELS 3 Zrotation Yrotation Xrotation
		JOINT RightHip
		{
			OFFSET -1.31183 -1.83292 1.03970
			CHANNELS 3 Zrotation Yrotation Xrotation
			JOINT RightKnee
			{
				OFFSET -2.44740 -6.72417 0.00000
				CHANNELS 3 Zrotation Yrotation Xrotation
				JOINT RightAnkle
				{
					OFFSET -2.67343 -7.34519 0.00000
					CHANNELS 3 Zrotation Yrotation Xrotation
					JOINT RightToe
					{
						OFFSET -0.16914 -0.46471 1.77626
						CHANNELS 3 Zrotation Yrotation Xrotation
						End Site
						{
							OFFSET -0.00000 -0.00000 0.92777
						}
					}
				}
			}
		}
	}
	JOINT lowerback
	{
		OFFSET 0 0 0
		CHANNELS 3 Zrotation Yrotation Xrotation
		JOINT Chest
		{
			OFFSET 0.01249 2.14252 0.03842
			CHANNELS 3 Zrotation Yrotation Xrotation
			JOINT Chest2
			{
				OFFSET -0.02957 2.14199 -0.03751
				CHANNELS 3 Zrotation Yrotation Xrotation
				JOINT lowerneck
				{
					OFFSET 0 0 0
					CHANNELS 3 Zrotation Yrotation Xrotation
					JOINT Neck
					{
						OFFSET -0.01678 1.65709 -0.05476
						CHANNELS 3 Zrotation Yrotation Xrotation
						JOINT Head
						{
							OFFSET 0.07912 1.58331 -0.11843
							CHANNELS 3 Zrotation Yrotation Xrotation
							End Site
							{
								OFFSET 0.03298 1.73940 -0.04271
							}
						}
					}
				}
				JOINT LeftCollar
				{
					OFFSET 0 0 0
					CHANNELS 3 Zrotation Yrotation Xrotation
					JOINT LeftShoulder
					{
						OFFSET 3.39556 1.16496 0.08673
CHANNELS 3 Zrotation Xrotation Yrotation
						JOINT LeftElbow
						{
OFFSET 0 -5.239100 -0.000000
CHANNELS 3 Zrotation Xrotation Yrotation
							JOINT LeftWrist
							{
OFFSET 0 -3.314670 0.000000
CHANNELS 3 Zrotation Xrotation Yrotation
								JOINT lhand
								{
									OFFSET 0 0 0
CHANNELS 3 Zrotation Xrotation Yrotation
									JOINT LFingers
									{
OFFSET 0 -0.965900 0.000000
CHANNELS 3 Zrotation Xrotation Yrotation
										End Site
										{
OFFSET 0 -0.778730 0.000000
										}
									}
								}
								JOINT LThumb
								{
OFFSET 0 0.000000 0.000000
CHANNELS 3 Zrotation Xrotation Yrotation
									End Site
									{
OFFSET 0 -0.790620 0.790620
									}
								}
							}
						}
					}
				}
				JOINT RightCollar
				{
					OFFSET 0 0 0
					CHANNELS 3 Zrotation Yrotation Xrotation
					JOINT RightShoulder
					{
						OFFSET -3.27193 1.31331 0.33940
CHANNELS 3 Zrotation Xrotation Yrotation
						JOINT RightElbow
						{
OFFSET 0 -5.302520 0.000000
CHANNELS 3 Zrotation Xrotation Yrotation
							JOINT RightWrist
							{
OFFSET 0 -3.678750 0.000000
CHANNELS 3 Zrotation Xrotation Yrotation
								JOINT rhand
								{
									OFFSET 0 0 0
CHANNELS 3 Zrotation Xrotation Yrotation
									JOINT RFingers
									{
OFFSET 0 -0.594810 0.000000
CHANNELS 3 Zrotation Xrotation Yrotation
										End Site
										{
OFFSET 0 -0.479550 0.000000
										}
									}
								}
								JOINT RThumb
								{
OFFSET 0 0.000000 0.000000
CHANNELS 3 Zrotation Xrotation Yrotation
									End Site
									{
OFFSET 0 -0.486870 0.486870
									}
								}
							}
						}
					}
				}
			}
		}
	}
}
MOTION
Frames: 6
Frame Time: 0.008333333333333333
8.144950 1.753920 9.407571 -0.245404 12.318378 -96.832220 0.000000 0.000000 0.000000 -9.528150 -17.398814 -94.568556 13.154435 18.835206 69.602568 40.164657 13.302868 172.889649 0.082144 0.520976 1.433244 0.000000 0.000000 0.000000 -8.090835 19.793232 -110.586628 -11.545543 -18.186446 64.534577 140.256780 -9.984810 169.317669 -0.019022 -0.022768 0.063248 -7.086627 0.621792 20.111274 -2.126276 -0.147204 15.195169 1.704978 -0.550393 5.466758 -2.708324 -1.610601 0.004325 2.483034 -2.230537 4.774670 1.202502 -1.124232 1.546438 0.000000 0.000000 0.000000 14.595000 -25.081423 -23.657306 70.174563 -58.411895 42.927480 57.869369 -57.644733 26.478405 0.000000 0.000000 0.000000 -7.125000 0.000000 0.000000 15.632629 -11.760134 19.136445 0.000000 0.000000 0.000000 -10.804989 -22.973559 16.097439 -91.706910 -59.961210 -61.477830 -43.143542 17.936126 32.440358 0.000000 0.000000 0.000000 7.125000 0.000000 0.000000 -17.844444 70.304177 10.917162
8.130308 1.741440 9.418874 -0.578546 12.368287 -98.520710 0.000000 0.000000 0.000000 -7.794786 -17.978504 -98.393180 13.871620 19.074393 71.811807 40.495685 14.972868 176.468609 2.535260 9.802689 28.405421 0.000000 0.000000 0.000000 -9.137016 19.941802 -113.440603 -12.623293 -18.641393 67.950768 140.285211 -8.853774 169.403799 -0.035479 1.211154 -3.330107 -7.200925 0.714477 19.030587 -2.160802 0.029208 14.553363 1.713938 -0.447351 5.258708 -2.888370 -1.588474 1.223094 2.958683 -2.257155 5.034074 1.391713 -1.143437 1.429888 0.000000 0.000000 0.000000 15.182586 -28.595304 -22.127430 78.804767 -59.516593 50.320796 57.527679 -56.226004 26.937922 0.000000 0.000000 0.000000 -7.125000 0.000000 0.000000 15.308524 -12.109671 18.784181 0.000000 0.000000 0.000000 -11.366113 -26.591478 13.609773 -98.826554 -59.700722 -67.636241 -44.795689 21.167030 32.219851 0.000000 0.000000 0.000000 7.125000 0.000000 0.000000 -20.950707 70.580327 12.977825
8.119371 1.759486 9.455310 0.290043 12.633374 -100.188287 0.000000 0.000000 0.000000 -6.330605 -17.093614 -102.215930 14.605487 19.285404 74.043777 40.602175 15.146918 178.436487 4.003273 12.164688 36.317164 0.000000 0.000000 0.000000 -10.189900 21.196029 -116.094673 -13.803347 -19.048036 71.598616 140.334506 -7.053730 169.273247 -0.070009 1.683692 -4.632863 -7.797434 1.151242 18.659568 -2.173690 0.507118 13.548922 1.979092 -0.192443 4.275642 -3.345925 -1.419372 2.558179 3.090453 -2.092562 5.810664 1.523415 -1.080932 1.451129 0.000000 0.000000 0.000000 15.476639 -31.846044 -20.366681 87.866557 -59.945209 58.152909 59.634124 -57.120272 27.005993 0.000000 0.000000 0.000000 -7.125000 0.000000 0.000000 16.393355 -13.681859 20.550087 0.000000 0.000000 0.000000 -11.912241 -29.954078 11.746902 -104.332376 -59.200193 -72.378075 -44.039136 23.360188 31.912845 0.000000 0.000000 0.000000 7.125000 0.000000 0.000000 -19.464710 69.997507 11.794296
8.107035 1.796621 9.488310 0.983055 12.896613 -101.931290 0.000000 0.000000 0.000000 -5.078906 -16.196783 -105.743157 15.449183 19.493243 76.584326 40.613010 15.414867 178.154561 3.251903 11.041023 32.476304 0.000000 0.000000 0.000000 -11.016999 22.213451 -118.407433 -15.062468 -19.399190 75.420702 140.369352 -4.836218 169.129505 -0.157333 2.533523 -6.983633 -8.279444 1.492281 18.058223 -2.256486 0.914957 12.816468 2.109123 0.023737 3.730274 -2.923255 -1.397810 2.718803 2.097085 -2.045803 7.671657 1.135958 -1.070638 1.999804 0.000000 0.000000 0.000000 15.953213 -35.478071 -18.497947 96.886931 -59.777980 65.958329 61.613640 -58.419802 27.913619 0.000000 0.000000 0.000000 -7.125000 0.000000 0.000000 17.133848 -16.315969 22.091783 0.000000 0.000000 0.000000 -12.372906 -33.704260 10.054917 -108.893394 -58.592400 -76.283360 -46.021782 27.458118 31.458934 0.000000 0.000000 0.000000 7.125000 0.000000 0.000000 -23.162374 70.109728 14.151795
8.089418 1.843698 9.513498 1.358451 13.073784 -104.069885 0.000000 0.000000 0.000000 -4.030544 -15.438668 -108.513984 16.614993 19.721208 80.057931 40.983069 20.022425 -133.899871 2.848051 10.444817 30.429698 0.000000 0.000000 0.000000 -11.445890 22.969238 -119.963171 -16.611970 -19.719531 80.048387 139.015549 16.540699 170.541318 -0.205322 2.917479 -8.049102 -8.526798 1.796291 18.285903 -2.406269 1.224762 12.207483 2.039765 0.218788 2.908033 -3.393503 -1.240070 3.320914 3.077548 -1.922878 7.970801 1.538804 -1.008771 2.009572 0.000000 0.000000 0.000000 16.846016 -39.295061 -16.542717 104.926016 -59.130820 72.887905 62.483584 -57.813116 28.707382 0.000000 0.000000 0.000000 -7.125000 0.000000 0.000000 17.323332 -17.981086 22.675957 0.000000 0.000000 0.000000 -12.579911 -36.989745 8.298383 -114.399922 -57.619310 -80.961311 -46.653973 29.993675 31.697325 0.000000 0.000000 0.000000 7.125000 0.000000 0.000000 -24.521544 70.575043 15.267688
8.073757 1.910870 9.528078 1.831558 13.230642 -106.373452 0.000000 0.000000 0.000000 -3.181535 -14.480932 -110.597554 18.192464 19.916531 84.707431 37.533427 25.140225 -134.901808 1.944905 8.735347 24.980455 0.000000 0.000000 0.000000 -11.581995 23.842085 -120.900441 -18.401508 -19.933366 85.320798 130.440759 46.126041 174.127898 -0.254067 3.236137 -8.937447 -8.670462 2.067163 18.998388 -2.538521 1.461417 11.876738 1.926965 0.372786 2.160616 -1.952420 -1.337997 1.295645 0.823486 -1.873211 10.344754 0.556785 -0.992302 3.110258 0.000000 0.000000 0.000000 18.366237 -43.496446 -13.825520 112.161429 -58.020062 79.060027 63.162899 -57.707306 30.370147 0.000000 0.000000 0.000000 -7.125000 0.000000 0.000000 17.094892 -20.513009 22.792822 0.000000 0.000000 0.000000 -13.383816 -40.370961 6.341565 -120.133857 -56.257391 -85.766497 -46.102558 30.660427 32.326505 0.000000 0.000000 0.000000 7.125000 0.000000 0.000000 -23.622376 71.107522 14.967367
